# xmcd
#
# Track frame offsets:
#	150
#	29555
#	60287
#	88557
#	100565
#	111911
#	125176
#	137883
#	149360
#	161840
#	173682
#	185554
#	199309
#	211052
#	223766
#	234722
#
# Disc length: 3296 seconds
#
# Revision: 2
# Processed by: cddbd v1.5.1PL0 Copyright (c) Steve Scherf et al.
# Submitted via: audiograbber 1.80
#
DISCID=f00cde10
DTITLE=Ray Charles - Ray Charles
DYEAR=1900
DGENRE=
TTITLE0=What'd I Say
TTITLE1=Georgia On My Mind
TTITLE2=I Got A Woman
TTITLE3=I Love You, I Love You
TTITLE4=Confesion Blues
TTITLE5=Alone In The City
TTITLE6=Can Anyone Ask For More?
TTITLE7=Let's Have A Ball
TTITLE8=Rockin'chair Blues
TTITLE9=If I Give You My Love
TTITLE10=Can't You See Darling?
TTITLE11=This Love Of Mine
TTITLE12=How Long Blues
TTITLE13=Blues Before Sunrise
TTITLE14=A Sentimental Blues
TTITLE15=You'll Never Miss The Water
EXTD=
EXTT0=
EXTT1=
EXTT2=
EXTT3=
EXTT4=
EXTT5=
EXTT6=
EXTT7=
EXTT8=
EXTT9=
EXTT10=
EXTT11=
EXTT12=
EXTT13=
EXTT14=
EXTT15=
PLAYORDER=
